<svg width="191" height="191" viewBox="0 0 191 191" fill="none" xmlns="http://www.w3.org/2000/svg">
<circle cx="99" cy="99" r="92" fill="#8A8F94"/>
<circle cx="92" cy="94" r="92" fill="#BABEC3"/>
<circle cx="92" cy="94" r="72" fill="#F8F8F9"/>
<circle cx="92" cy="94" r="44" stroke="#00D2DC" stroke-width="20"/>
<circle cx="92" cy="94" r="15" fill="#C1262C"/>
<path d="M159.292 25.3662L92 93.7184" stroke="black" stroke-width="2"/>
<path d="M158.266 4.29289L157.892 4.66756L138.034 24.525L137.741 24.8179L137.741 25.2321L137.741 44.7149L137.741 47.1291L139.448 45.422L159.306 25.5646L159.599 25.2717V24.8575L159.599 5.78888L159.681 5.70711L159.599 5.62533V5.37467L159.599 2.96046L158.266 4.29289Z" fill="#C1262C" stroke="black" stroke-width="2"/>
<path d="M180.828 26.4483L180.453 26.823L160.596 46.6804L160.303 46.9733L159.889 46.9733L140.406 46.9733L137.992 46.9733L139.699 45.2662L159.556 25.4088L159.849 25.1159H160.264L179.332 25.1159L179.414 25.0341L179.496 25.1159H179.746L182.161 25.1159L180.828 26.4483Z" fill="#00D2DC" stroke="black" stroke-width="2"/>
</svg>
