<svg width="110" height="33" viewBox="0 0 110 33" fill="none" xmlns="http://www.w3.org/2000/svg">
<path d="M104.674 10.2864H101.953V7.91943H110V10.2864H107.278V24.488H104.675L104.674 10.2864Z" fill="black"/>
<path d="M96.3428 7.91943H98.9463V22.1211H103.231V24.488H96.3428V7.91943Z" fill="black"/>
<path d="M87.6999 23.6366C87.0215 22.9106 86.6823 21.8848 86.6823 20.5592V11.8487C86.6823 10.5231 87.0215 9.49737 87.6999 8.77136C88.3783 8.04536 89.3567 7.68261 90.6352 7.68311C91.9131 7.68311 92.8915 8.04586 93.5704 8.77136C94.2493 9.49687 94.5885 10.5226 94.588 11.8487V20.5592C94.588 21.8848 94.2488 22.9106 93.5704 23.6366C92.892 24.3626 91.9136 24.7253 90.6352 24.7248C89.3592 24.7248 88.3808 24.3621 87.6999 23.6366ZM91.9845 20.7251V11.6828C91.9845 10.5918 91.5347 10.0476 90.6352 10.0501C89.7356 10.0525 89.2858 10.5968 89.2858 11.6828V20.7251C89.2858 21.8161 89.7356 22.3616 90.6352 22.3616C91.5347 22.3616 91.9855 21.8161 91.9875 20.7251H91.9845Z" fill="black"/>
<path d="M77.312 7.91943H81.241C82.58 7.91943 83.5584 8.23111 84.1763 8.85446C84.7942 9.47781 85.1009 10.4364 85.0964 11.7302V12.393C85.0964 13.2444 84.9583 13.9387 84.6821 14.4758C84.4159 15.0034 83.9662 15.4158 83.4175 15.6354V15.683C84.7109 16.1249 85.3578 17.2769 85.3583 19.139V20.559C85.3583 21.837 85.023 22.8114 84.3526 23.4824C83.6821 24.1533 82.7 24.4885 81.4062 24.488H77.3105L77.312 7.91943ZM80.9308 14.6655C81.4515 14.6655 81.8421 14.5313 82.1024 14.263C82.3627 13.9947 82.4929 13.545 82.4929 12.9137V11.9905C82.4929 11.391 82.3863 10.9571 82.1731 10.6888C81.9598 10.4205 81.6246 10.2864 81.1674 10.2864H79.9125V14.6655H80.9308ZM81.4047 22.1211C81.8619 22.1211 82.2008 21.9989 82.4215 21.7544C82.6422 21.5099 82.7528 21.0884 82.7533 20.4898V19.0423C82.7533 18.285 82.6231 17.7604 82.3627 17.4683C82.1024 17.1762 81.6747 17.0314 81.0796 17.0339H79.9192V22.1226L81.4047 22.1211Z" fill="black"/>
<path d="M68.6729 23.6366C67.994 22.9106 67.6548 21.8848 67.6553 20.5592V11.8487C67.6553 10.5231 67.9945 9.49737 68.6729 8.77136C69.3513 8.04536 70.3297 7.68261 71.6081 7.68311C72.8861 7.68311 73.8645 8.04586 74.5434 8.77136C75.2223 9.49687 75.5612 10.5226 75.5602 11.8487V20.5592C75.5602 21.8848 75.2213 22.9106 74.5434 23.6366C73.8655 24.3626 72.887 24.7253 71.6081 24.7248C70.3297 24.7248 69.3513 24.3621 68.6729 23.6366ZM72.9575 20.7251V11.6828C72.9575 10.5918 72.5077 10.0476 71.6081 10.0501C70.7085 10.0525 70.2588 10.5968 70.2588 11.6828V20.7251C70.2588 21.8161 70.7085 22.3616 71.6081 22.3616C72.5077 22.3616 72.9575 21.8161 72.9575 20.7251Z" fill="black"/>
<path d="M59.2527 7.91943H66.3513V10.2864H61.8562V14.6655H65.4267V17.0339H61.8562V22.1226H66.3513V24.4895H59.2527V7.91943Z" fill="black"/>
<path d="M49.6429 7.91943H53.6195C54.9128 7.91943 55.8831 8.26657 56.5302 8.96083C57.1774 9.65509 57.4997 10.6729 57.4972 12.0144V20.3931C57.4972 21.7321 57.1749 22.7487 56.5302 23.4429C55.8856 24.1372 54.9153 24.4843 53.6195 24.4843H49.6429V7.91943ZM53.5719 22.1211C53.9979 22.1211 54.3252 21.9949 54.5538 21.7425C54.7824 21.4901 54.8965 21.0797 54.896 20.5114V11.8961C54.896 11.3278 54.7814 10.9174 54.5523 10.665C54.3232 10.4126 53.9959 10.2864 53.5704 10.2864H52.2464V22.1211H53.5719Z" fill="black"/>
<path d="M45.0986 7.91943H47.7021V24.488H45.0986V7.91943Z" fill="black"/>
<path d="M35.3705 7.91943H37.9978L39.7019 20.7718H39.7496L41.4537 7.91943H43.8445L41.3355 24.488H37.8795L35.3705 7.91943Z" fill="black"/>
<path d="M30.897 12.8561C30.5779 12.5273 30.2499 12.2074 29.9382 11.889C29.8575 11.8075 29.7741 11.7286 29.6883 11.6525C26.994 9.25356 24.0744 7.0406 20.9041 5.22931C20.8669 5.2076 20.8258 5.19351 20.7831 5.18786C20.7405 5.18221 20.6971 5.18512 20.6555 5.1964C20.614 5.20769 20.5751 5.22713 20.5412 5.2536C20.5072 5.28006 20.4789 5.31303 20.4578 5.35056C20.4448 5.37408 20.4345 5.39904 20.4273 5.42494L18.3445 12.7846C18.3306 12.8329 18.3282 12.8838 18.3374 12.9332C18.3466 12.9825 18.3672 13.0291 18.3975 13.0692C18.4278 13.1092 18.467 13.1417 18.5121 13.1639C18.5571 13.1862 18.6067 13.1977 18.6569 13.1975H24.331C25.6134 13.1975 26.2517 14.5632 25.4416 15.5741L14.2399 29.5586C14.1951 29.6141 14.1699 29.6828 14.1681 29.754C14.1663 29.8253 14.1881 29.8952 14.23 29.9529C14.2719 30.0105 14.3317 30.0528 14.4 30.0731C14.4684 30.0934 14.5415 30.0906 14.6081 30.0651L15.5751 29.7006C20.6229 27.8075 25.1165 24.8076 29.1564 21.4067C29.2397 21.3362 29.3208 21.2633 29.3997 21.188C29.8675 20.7417 30.3704 20.2953 30.8472 19.8223C31.7772 18.9115 32.3075 17.6688 32.3214 16.3672C32.3354 15.0656 31.8319 13.8118 30.9216 12.8813L30.897 12.8568" fill="black"/>
<path d="M11.2474 21.2295C11.2611 21.1804 11.2634 21.1288 11.2539 21.0788C11.2444 21.0287 11.2235 20.9815 11.1927 20.9409C11.1619 20.9002 11.1222 20.8673 11.0766 20.8446C11.031 20.8219 10.9807 20.81 10.9297 20.81H5.26454C3.98288 20.81 3.34465 19.4442 4.15397 18.4341L16.2044 3.38963C16.258 3.32284 16.2828 3.23752 16.2734 3.15243C16.2641 3.06734 16.2213 2.98944 16.1546 2.93587C16.1301 2.91564 16.1024 2.89956 16.0727 2.88827C12.7284 1.56198 9.2821 0.0742664 5.60151 0.00360018C3.77088 -0.0886378 2.78379 1.60958 2.25342 3.01919C0.736699 7.16171 0.201124 11.5757 0.00474617 15.9392C-0.00120467 16.0634 -0.00194852 16.1876 0.00474617 16.3111C0.123019 20.5838 0.594623 24.9257 1.96257 29.0102C2.48327 30.4979 3.41086 32.3806 5.35901 32.3196C6.23898 32.312 7.11679 32.2312 7.98333 32.0779C8.04389 32.0675 8.10028 32.0402 8.14596 31.9992C8.19164 31.9581 8.22475 31.9049 8.24145 31.8458L11.2474 21.2295Z" fill="black"/>
</svg>
