<svg width="24" height="24" viewBox="0 0 24 24" fill="none" xmlns="http://www.w3.org/2000/svg">
<path d="M12 23C18.0751 23 23 18.0751 23 12C23 5.92487 18.0751 1 12 1C5.92487 1 1 5.92487 1 12C1 18.0751 5.92487 23 12 23Z" stroke="black" stroke-linecap="round" stroke-linejoin="round"/>
<path d="M12.61 17.088H13.78V18.312H10V17.088H11.134V10.536H10V9.312H12.61V17.088ZM11.872 6C12.124 6 12.334 6.096 12.502 6.288C12.682 6.468 12.772 6.69 12.772 6.954C12.772 7.206 12.682 7.422 12.502 7.602C12.334 7.77 12.118 7.854 11.854 7.854C11.602 7.854 11.386 7.77 11.206 7.602C11.038 7.422 10.954 7.206 10.954 6.954C10.954 6.69 11.044 6.468 11.224 6.288C11.404 6.096 11.62 6 11.872 6Z" fill="black"/>
</svg>
