<svg width="23" height="23" viewBox="0 0 23 23" fill="none" xmlns="http://www.w3.org/2000/svg">
<path d="M14.9201 6.21879L13.6394 2.11005C12.9703 -0.0366806 10.0297 -0.0366839 9.36058 2.11005L8.07993 6.21879C7.90764 6.77157 7.42211 7.1264 6.89521 7.1264L2.75096 7.1264C1.65012 7.1264 0.881808 7.86932 0.611534 8.73645C0.341667 9.60227 0.545579 10.657 1.42186 11.3206L4.77463 13.86C5.21393 14.1927 5.40723 14.7937 5.23402 15.3495L3.95337 19.4582C3.62407 20.5147 4.04303 21.4966 4.7637 22.0424C5.48742 22.5905 6.53808 22.7118 7.42189 22.0424L10.7747 19.503C11.2086 19.1744 11.7914 19.1744 12.2253 19.503L15.5781 22.0424C16.4619 22.7118 17.5126 22.5905 18.2363 22.0424C18.957 21.4966 19.3759 20.5147 19.0466 19.4582L17.766 15.3495C17.5928 14.7937 17.7861 14.1927 18.2254 13.86L21.5781 11.3206C22.4544 10.657 22.6583 9.60227 22.3885 8.73645C22.1182 7.86932 21.3499 7.1264 20.249 7.1264L16.1048 7.1264C15.5779 7.1264 15.0924 6.77157 14.9201 6.21879Z" fill="#00D2DC" stroke="black"/>
</svg>
