<svg width="25" height="25" viewBox="0 0 25 25" fill="none" xmlns="http://www.w3.org/2000/svg">
<path d="M16.3974 7.07L15.1168 2.96126C14.3017 0.346249 10.6983 0.346243 9.88323 2.96126L8.60258 7.07C8.49195 7.42494 8.19189 7.6264 7.89521 7.6264L3.75096 7.6264C2.39575 7.6264 1.45834 8.54765 1.13418 9.58766C0.81084 10.6251 1.05223 11.9105 2.11998 12.7192L5.47275 15.2586C5.73883 15.4601 5.86914 15.8398 5.75667 16.2007L4.47602 20.3094C4.07899 21.5832 4.587 22.7784 5.46181 23.441C6.34276 24.1082 7.64096 24.2611 8.72377 23.441L12.0765 20.9016C12.332 20.7082 12.668 20.7082 12.9235 20.9016L16.2762 23.441C17.359 24.2611 18.6572 24.1082 19.5382 23.441C20.413 22.7784 20.921 21.5832 20.524 20.3094L19.2433 16.2007C19.1309 15.8398 19.2612 15.4601 19.5273 15.2586L22.88 12.7192C23.9478 11.9105 24.1892 10.6251 23.8658 9.58767C23.5417 8.54765 22.6042 7.6264 21.249 7.6264L17.1048 7.6264C16.8081 7.6264 16.508 7.42494 16.3974 7.07Z" fill="#00D2DC" stroke="black" stroke-width="2"/>
</svg>
